<?xml version="1.0" encoding="UTF-8"?> <svg xmlns="http://www.w3.org/2000/svg" width="64" height="74" viewBox="0 0 64 74" fill="none"><path fill-rule="evenodd" clip-rule="evenodd" d="M31 35.875V32.5H33V35.875H31ZM31 40.9087V38.125H33V40.9087L36.2319 42.6863L35.2681 44.4387L32 42.6413L28.7319 44.4387L27.7681 42.6863L31 40.9087ZM26.2319 45.8137L22.4819 47.8762L21.5181 46.1238L25.2681 44.0613L26.2319 45.8137ZM41.5181 47.8762L37.7681 45.8137L38.7319 44.0613L42.4819 46.1238L41.5181 47.8762Z" fill="url(#paint0_linear_82_1503)"></path><path fill-rule="evenodd" clip-rule="evenodd" d="M41 42V54L52 60L63 54V42L52 36L41 42ZM43 44.1833V52.8127L51 57.1764V48.3957L43 44.1833ZM53 48.3957V57.1764L61 52.8127V44.1833L53 48.3957ZM59.8206 42.544L52 38.2782L44.1794 42.544L52 46.662L59.8206 42.544Z" fill="url(#paint1_linear_82_1503)"></path><path fill-rule="evenodd" clip-rule="evenodd" d="M1 42V54L12 60L23 54V42L12 36L1 42ZM3 44.1833V52.8127L11 57.1764V48.3957L3 44.1833ZM13 48.3957V57.1764L21 52.8127V44.1833L13 48.3957ZM19.8206 42.544L12 38.2782L4.17939 42.544L12 46.662L19.8206 42.544Z" fill="url(#paint2_linear_82_1503)"></path><path fill-rule="evenodd" clip-rule="evenodd" d="M21 15V27L32 33L43 27V15L32 9L21 15ZM23 17.1833V25.8127L31 30.1764V21.3957L23 17.1833ZM33 21.3957V30.1764L41 25.8127V17.1833L33 21.3957ZM39.8206 15.544L32 11.2782L24.1794 15.544L32 19.662L39.8206 15.544Z" fill="url(#paint3_linear_82_1503)"></path><defs><linearGradient id="paint0_linear_82_1503" x1="32" y1="32.5" x2="32" y2="47.8762" gradientUnits="userSpaceOnUse"><stop stop-color="#E15CF9"></stop><stop offset="0.489583" stop-color="#6E8FEE"></stop><stop offset="1" stop-color="#00CE96"></stop></linearGradient><linearGradient id="paint1_linear_82_1503" x1="52" y1="36" x2="52" y2="60" gradientUnits="userSpaceOnUse"><stop stop-color="#E15CF9"></stop><stop offset="0.489583" stop-color="#6E8FEE"></stop><stop offset="1" stop-color="#00CE96"></stop></linearGradient><linearGradient id="paint2_linear_82_1503" x1="12" y1="36" x2="12" y2="60" gradientUnits="userSpaceOnUse"><stop stop-color="#E15CF9"></stop><stop offset="0.489583" stop-color="#6E8FEE"></stop><stop offset="1" stop-color="#00CE96"></stop></linearGradient><linearGradient id="paint3_linear_82_1503" x1="32" y1="9" x2="32" y2="33" gradientUnits="userSpaceOnUse"><stop stop-color="#E15CF9"></stop><stop offset="0.489583" stop-color="#6E8FEE"></stop><stop offset="1" stop-color="#00CE96"></stop></linearGradient></defs></svg> 