<?xml version="1.0" encoding="UTF-8"?> <svg xmlns="http://www.w3.org/2000/svg" width="64" height="74" viewBox="0 0 64 74" fill="none"><path fill-rule="evenodd" clip-rule="evenodd" d="M20.0001 11.3094L9.87573 17.1547V28.8453L20.0001 34.6906L30.1244 28.8453V17.1547L20.0001 11.3094ZM32.1244 16L20.0001 9L7.87573 16V30L20.0001 37L32.1244 30V16Z" fill="url(#paint0_linear_82_1513)"></path><path d="M24.0524 19.9758L22.2782 21.75L21.2701 22.3145L21.371 22.5564L22.2782 22.2742H25V23.7258H22.2782L21.371 23.4435L21.2701 23.6854L22.2782 24.25L24.0524 26.0242L23.0242 27.0524L21.25 25.2782L20.6855 24.2701L20.4435 24.371L20.7258 25.2782V28H19.2742V25.2782L19.5565 24.371L19.3145 24.2701L18.75 25.2782L16.9758 27.0524L15.9476 26.0242L17.7218 24.25L18.7298 23.6854L18.629 23.4435L17.7218 23.7258H15V22.2742H17.7218L18.629 22.5564L18.7298 22.3145L17.7218 21.75L15.9476 19.9758L16.9758 18.9476L18.75 20.7218L19.3145 21.7298L19.5565 21.629L19.2742 20.7218V18H20.7258V20.7218L20.4435 21.629L20.6855 21.7298L21.25 20.7218L23.0242 18.9476L24.0524 19.9758Z" fill="url(#paint1_linear_82_1513)"></path><path fill-rule="evenodd" clip-rule="evenodd" d="M16.4127 63.6592C21.7474 65.0886 27.2307 61.9228 28.6602 56.5881C30.0896 51.2534 26.9238 45.7701 21.5891 44.3407C16.2544 42.9112 10.7711 46.0771 9.34165 51.4117C7.91223 56.7464 11.0781 62.2298 16.4127 63.6592ZM15.8951 65.591C22.2967 67.3063 28.8767 63.5073 30.592 57.1057C32.3073 50.7042 28.5083 44.1241 22.1067 42.4088C15.7051 40.6935 9.1251 44.4925 7.4098 50.8941C5.69449 57.2957 9.49348 63.8757 15.8951 65.591Z" fill="url(#paint2_linear_82_1513)"></path><path d="M22.7968 54.772C23.6542 54.5896 24.3072 54.0385 24.4987 52.8811C24.763 51.2996 23.5703 50.4268 21.9295 49.8301L22.4279 47.9665C22.43 47.9607 22.4344 47.9563 22.4361 47.9502C22.4742 47.808 22.3898 47.6621 22.2477 47.6238L21.4633 47.4137C21.3951 47.3955 21.3225 47.4051 21.2614 47.4404C21.2003 47.4757 21.1557 47.5338 21.1374 47.602L21.1315 47.6004L20.6434 49.4258C20.3011 49.3341 19.9496 49.2472 19.6004 49.1613L20.0865 47.3446C20.0892 47.337 20.0949 47.3312 20.0971 47.3232C20.1352 47.1811 20.0508 47.0352 19.9087 46.9969L19.1243 46.7867C19.0561 46.7685 18.9835 46.7781 18.9224 46.8134C18.8613 46.8487 18.8167 46.9069 18.7984 46.975L18.7985 46.9757L18.7921 46.974L18.2885 48.855C18.0051 48.7852 17.7269 48.7171 17.4569 48.6447L17.4586 48.6379L15.6634 48.1569L15.6627 48.1596C15.6289 48.1505 15.5937 48.1482 15.559 48.1527C15.5243 48.1573 15.4908 48.1686 15.4605 48.1861C15.4302 48.2036 15.4036 48.2269 15.3823 48.2547C15.3611 48.2825 15.3454 48.3142 15.3364 48.348L15.1035 49.2173C15.0654 49.3595 15.1497 49.5056 15.2919 49.5437L15.293 49.5437L15.2919 49.5476C15.2919 49.5476 16.258 49.7864 16.2374 49.7992C16.7644 49.9407 16.8542 50.2926 16.8335 50.5699L16.1817 53.0065L16.1794 53.0158L15.2661 56.4284C15.1987 56.588 15.0302 56.8267 14.6618 56.7286C14.6746 56.7477 13.7158 56.4749 13.7158 56.4749L13.7152 56.4761C13.7136 56.4756 13.7126 56.4743 13.711 56.4738C13.5873 56.4407 13.4652 56.5032 13.4092 56.6128L13.3988 56.6094L12.8769 57.6092L12.8822 57.6118C12.8786 57.6209 12.8719 57.628 12.8693 57.6378C12.8327 57.7744 12.9108 57.9124 13.043 57.9569L13.0414 57.9607L14.7352 58.4139C15.0504 58.4983 15.3593 58.5866 15.6632 58.67L15.1541 60.5758L15.1547 60.576C15.1167 60.7179 15.201 60.864 15.3432 60.9021L16.1276 61.1122C16.1958 61.1304 16.2684 61.1208 16.3295 61.0854C16.3907 61.0501 16.4352 60.9919 16.4535 60.9237L16.4539 60.9239L16.9574 59.0415C17.3124 59.1443 17.6571 59.2396 17.9947 59.3291L17.4932 61.2025L17.4938 61.2027C17.4559 61.3447 17.5401 61.4907 17.682 61.5288L18.4664 61.7389C18.5346 61.7571 18.6073 61.7474 18.6684 61.7121C18.7295 61.6768 18.7741 61.6186 18.7923 61.5504L18.7924 61.5502L18.794 61.5507L19.3033 59.6483C21.5251 60.108 23.2043 59.9666 23.9442 57.9623C24.5401 56.349 23.9592 55.4023 22.7968 54.772ZM19.2213 50.6995C19.956 50.8959 22.3266 51.2798 21.9166 52.8134C21.5228 54.284 19.2606 53.4948 18.5258 53.2984L19.2213 50.6995ZM17.4081 57.4755L18.1753 54.6099C19.0574 54.8462 21.8916 55.3327 21.4406 57.0183C21.0088 58.6348 18.2906 57.7104 17.4081 57.4755Z" fill="url(#paint3_linear_82_1513)"></path><path fill-rule="evenodd" clip-rule="evenodd" d="M44 50C49.5228 50 54 45.5228 54 40C54 34.4772 49.5228 30 44 30C38.4772 30 34 34.4772 34 40C34 45.5228 38.4772 50 44 50ZM44 52C50.6274 52 56 46.6274 56 40C56 33.3726 50.6274 28 44 28C37.3726 28 32 33.3726 32 40C32 46.6274 37.3726 52 44 52Z" fill="url(#paint4_linear_82_1513)"></path><path d="M44.1159 33L40 39.9146L44.1159 42.3841L48.2317 39.9146L44.1159 33ZM40 40.7378L44.1159 46.5L48.2317 40.7378L44.1159 43.2073L40 40.7378Z" fill="url(#paint5_linear_82_1513)"></path><defs><linearGradient id="paint0_linear_82_1513" x1="20.0001" y1="9" x2="20.0001" y2="37" gradientUnits="userSpaceOnUse"><stop stop-color="#E15CF9"></stop><stop offset="0.489583" stop-color="#6E8FEE"></stop><stop offset="1" stop-color="#00CE96"></stop></linearGradient><linearGradient id="paint1_linear_82_1513" x1="20" y1="18" x2="20" y2="28" gradientUnits="userSpaceOnUse"><stop stop-color="#E15CF9"></stop><stop offset="0.489583" stop-color="#6E8FEE"></stop><stop offset="1" stop-color="#00CE96"></stop></linearGradient><linearGradient id="paint2_linear_82_1513" x1="22.1067" y1="42.4088" x2="15.8951" y2="65.591" gradientUnits="userSpaceOnUse"><stop stop-color="#E15CF9"></stop><stop offset="0.489583" stop-color="#6E8FEE"></stop><stop offset="1" stop-color="#00CE96"></stop></linearGradient><linearGradient id="paint3_linear_82_1513" x1="21.2074" y1="47.3449" x2="17.4252" y2="61.4599" gradientUnits="userSpaceOnUse"><stop stop-color="#E15CF9"></stop><stop offset="0.489583" stop-color="#6E8FEE"></stop><stop offset="1" stop-color="#00CE96"></stop></linearGradient><linearGradient id="paint4_linear_82_1513" x1="44" y1="28" x2="44" y2="52" gradientUnits="userSpaceOnUse"><stop stop-color="#E15CF9"></stop><stop offset="0.489583" stop-color="#6E8FEE"></stop><stop offset="1" stop-color="#00CE96"></stop></linearGradient><linearGradient id="paint5_linear_82_1513" x1="44.1159" y1="33" x2="44.1159" y2="46.5" gradientUnits="userSpaceOnUse"><stop stop-color="#E15CF9"></stop><stop offset="0.489583" stop-color="#6E8FEE"></stop><stop offset="1" stop-color="#00CE96"></stop></linearGradient></defs></svg> 