<?xml version="1.0" encoding="UTF-8"?> <svg xmlns="http://www.w3.org/2000/svg" width="64" height="74" viewBox="0 0 64 74" fill="none"><path fill-rule="evenodd" clip-rule="evenodd" d="M13 55H36V33H5V63L13 55ZM7 58.1716L12.1716 53H34V35H7V58.1716Z" fill="url(#paint0_linear_82_1531)"></path><path d="M25.0524 40.9758L23.2782 42.75L22.2701 43.3145L22.371 43.5564L23.2782 43.2742H26V44.7258H23.2782L22.371 44.4435L22.2701 44.6854L23.2782 45.25L25.0524 47.0242L24.0242 48.0524L22.25 46.2782L21.6855 45.2701L21.4435 45.371L21.7258 46.2782V49H20.2742V46.2782L20.5565 45.371L20.3145 45.2701L19.75 46.2782L17.9758 48.0524L16.9476 47.0242L18.7218 45.25L19.7298 44.6854L19.629 44.4435L18.7218 44.7258H16V43.2742H18.7218L19.629 43.5564L19.7298 43.3145L18.7218 42.75L16.9476 40.9758L17.9758 39.9476L19.75 41.7218L20.3145 42.7298L20.5565 42.629L20.2742 41.7218V39H21.7258V41.7218L21.4435 42.629L21.6855 42.7298L22.25 41.7218L24.0242 39.9476L25.0524 40.9758Z" fill="url(#paint1_linear_82_1531)"></path><path d="M38.9476 33.0242L40.7218 31.25L41.7299 30.6855L41.629 30.4436L40.7218 30.7258L38 30.7258L38 29.2742L40.7218 29.2742L41.629 29.5565L41.7299 29.3146L40.7218 28.75L38.9476 26.9758L39.9758 25.9476L41.75 27.7218L42.3145 28.7299L42.5565 28.629L42.2742 27.7218L42.2742 25L43.7258 25L43.7258 27.7218L43.4435 28.629L43.6855 28.7299L44.25 27.7218L46.0242 25.9476L47.0524 26.9758L45.2782 28.75L44.2702 29.3146L44.371 29.5565L45.2782 29.2742L48 29.2742L48 30.7258L45.2782 30.7258L44.371 30.4436L44.2702 30.6855L45.2782 31.25L47.0524 33.0242L46.0242 34.0524L44.25 32.2782L43.6855 31.2702L43.4435 31.371L43.7258 32.2782L43.7258 35L42.2742 35L42.2742 32.2782L42.5565 31.371L42.3145 31.2702L41.75 32.2782L39.9758 34.0524L38.9476 33.0242Z" fill="url(#paint2_linear_82_1531)"></path><path fill-rule="evenodd" clip-rule="evenodd" d="M30 19L51 19L57 13L59 11V13.8284L59 39V41H57L38 41V39L57 39L57 15.8284L52.4142 20.4142L51.8284 21H51L30 21L30 31H28V21L28 19L30 19Z" fill="url(#paint3_linear_82_1531)"></path><path fill-rule="evenodd" clip-rule="evenodd" d="M22.2459 19.334L26.3406 23.92L22.2459 28.506L20.7541 27.174L22.7665 24.92H12V31H10V22.92H22.7665L20.7541 20.666L22.2459 19.334Z" fill="url(#paint4_linear_82_1531)"></path><path fill-rule="evenodd" clip-rule="evenodd" d="M41.7541 54.666L37.6594 50.08L41.7541 45.494L43.2459 46.826L41.2335 49.08L52 49.08L52 43L54 43L54 51.08L41.2335 51.08L43.2459 53.334L41.7541 54.666Z" fill="url(#paint5_linear_82_1531)"></path><defs><linearGradient id="paint0_linear_82_1531" x1="20.5" y1="33" x2="20.5" y2="63" gradientUnits="userSpaceOnUse"><stop stop-color="#E15CF9"></stop><stop offset="0.489583" stop-color="#1848D3" stop-opacity="0.510417"></stop><stop offset="1" stop-color="#00CE96"></stop></linearGradient><linearGradient id="paint1_linear_82_1531" x1="21" y1="39" x2="21" y2="49" gradientUnits="userSpaceOnUse"><stop stop-color="#E15CF9"></stop><stop offset="0.489583" stop-color="#1848D3" stop-opacity="0.510417"></stop><stop offset="1" stop-color="#00CE96"></stop></linearGradient><linearGradient id="paint2_linear_82_1531" x1="43" y1="35" x2="43" y2="25" gradientUnits="userSpaceOnUse"><stop stop-color="#E15CF9"></stop><stop offset="0.489583" stop-color="#1848D3" stop-opacity="0.510417"></stop><stop offset="1" stop-color="#00CE96"></stop></linearGradient><linearGradient id="paint3_linear_82_1531" x1="43.5" y1="11" x2="43.5" y2="41" gradientUnits="userSpaceOnUse"><stop stop-color="#E15CF9"></stop><stop offset="0.489583" stop-color="#1848D3" stop-opacity="0.510417"></stop><stop offset="1" stop-color="#00CE96"></stop></linearGradient><linearGradient id="paint4_linear_82_1531" x1="18" y1="20" x2="18" y2="31" gradientUnits="userSpaceOnUse"><stop stop-color="#E15CF9"></stop><stop offset="0.489583" stop-color="#1848D3" stop-opacity="0.510417"></stop><stop offset="1" stop-color="#00CE96"></stop></linearGradient><linearGradient id="paint5_linear_82_1531" x1="46" y1="54" x2="46" y2="43" gradientUnits="userSpaceOnUse"><stop stop-color="#E15CF9"></stop><stop offset="0.489583" stop-color="#1848D3" stop-opacity="0.510417"></stop><stop offset="1" stop-color="#00CE96"></stop></linearGradient></defs></svg> 